<svg width="197" height="30" viewBox="0 0 197 30" fill="none" xmlns="http://www.w3.org/2000/svg">
<path d="M45.8218 17.9381H57.1193V28.9931H55.0747L53.8271 26.7058V25.9781C52.0943 27.8494 49.8418 28.9931 47.3466 28.9931C41.9404 28.9931 37.5392 23.6215 37.5392 17.0024C37.5392 10.4179 41.9404 5.04634 47.3466 5.04634C50.6735 5.04634 53.6192 7.05634 55.3866 10.1406L52.8914 11.7348C51.3666 8.54651 48.8368 5.98203 46.3762 5.98203C46.0643 5.98203 45.7871 6.01668 45.4752 6.08599C42.3216 6.95237 39.6185 11.8041 40.9354 18.3886C42.3216 25.1463 45.6485 27.8494 48.6288 27.8494C51.8518 27.8494 53.3766 24.9038 53.8271 22.062V18.7698L46.2723 19.0124L45.8218 17.9381ZM72.9486 6.43254L63.0719 6.22461V16.5519H70.2455L69.691 17.3489H63.0719V27.9534L72.9486 27.7108V28.7158H59.8143V5.42754H72.9486V6.43254ZM99.8067 28.7158H96.5491L95.0936 7.19496L88.613 21.8194H84.9742L78.3898 6.95237L76.8996 28.7158H75.6867L77.662 5.42754H81.2661L88.1279 20.8144L94.9203 5.42754H97.9699L99.8067 28.7158ZM104.964 22.7205C107.597 25.8741 109.365 27.7801 111.444 28.196C111.825 28.2653 112.172 28.3 112.518 28.3C114.771 28.3 116.538 26.8791 116.746 24.6612C117.197 19.4975 105.345 17.1756 103.993 11.6655C103.023 7.61082 107.216 5.01168 111.167 5.01168C115.603 5.01168 118.479 7.50685 119.484 8.58116L117.058 11.215C115.845 8.54651 114.078 5.8434 110.82 5.8434C108.221 5.8434 106.488 7.68013 106.835 9.51685C107.736 14.4032 118.722 16.4479 119.761 21.3689C120.697 25.8048 117.093 29.201 111.583 29.201C106.696 29.201 102.538 25.5969 102.538 25.5969L104.964 22.7205ZM139.507 5.42754V6.36323H131.883V28.7158H128.66V6.36323H121.036V5.42754H139.507Z" fill="#2F2F2F"/>
<path d="M178.405 5.42754H179.895L179.687 28.7158H175.736L164.369 6.77909L164.82 28.7158H163.295L163.538 5.42754H167.315L178.82 27.6415L178.405 5.42754ZM196.633 6.43254L186.757 6.22461V16.5519H193.93L193.376 17.3489H186.757V27.9534L196.633 27.7108V28.7158H183.499V5.42754H196.633V6.43254Z" fill="#2F2F2F"/>
<path d="M149.435 5.13044C152.082 5.13044 154.418 5.89605 156.442 7.42725C159.427 9.65918 160.919 12.9162 160.919 17.1984C160.919 20.8577 159.686 23.8423 157.221 26.1521C155.015 28.2283 152.38 29.2664 149.318 29.2664C146.593 29.2664 144.18 28.4359 142.077 26.7749C139.197 24.4911 137.756 21.247 137.756 17.0427C137.756 13.4093 138.976 10.4637 141.416 8.20583C143.647 6.15557 146.321 5.13044 149.435 5.13044ZM149.435 28.1764C150.473 28.1764 151.433 27.9817 152.316 27.5925C155.456 26.217 157.026 22.7004 157.026 17.0427C157 9.87978 154.431 6.27236 149.318 6.22045C148.591 6.22045 147.904 6.29831 147.255 6.45403C143.518 7.44023 141.649 11.0217 141.649 17.1984C141.649 19.067 141.831 20.715 142.194 22.1424C143.258 26.1651 145.672 28.1764 149.435 28.1764Z" fill="#2F2F2F"/>
<path d="M148.325 11.0134C147.031 11.0361 145.96 9.9938 145.938 8.68922C145.915 7.38465 146.949 6.30527 148.243 6.2825C149.537 6.25973 150.608 7.30207 150.631 8.60665C150.639 9.92581 149.619 10.9906 148.325 11.0134Z" fill="#2F2F2F"/>
<path d="M29.2418 5.2334H10.9443L7.16227 9.06769H27.6742L29.4917 10.9103L17.4207 23.1533L5.34476 10.9103L7.16227 9.06769H1.81751L0 10.9103L17.4207 28.5719L34.8364 10.9103L29.2418 5.2334Z" fill="url(#paint0_linear_717_461)"/>
<path d="M11.096 2.99922C9.57243 3.33198 9.30299 3.60515 8.97476 5.1498C8.64653 3.60515 8.37709 3.33198 6.85352 2.99922C8.37709 2.66645 8.64163 2.39328 8.97476 0.848633C9.30299 2.39328 9.57243 2.66645 11.096 2.99922Z" fill="url(#paint1_linear_717_461)"/>
<path d="M7.33252 5.46968C5.35717 5.89867 5.00783 6.25082 4.58228 8.24209C4.15672 6.25082 3.80738 5.89867 1.83203 5.46968C3.80738 5.04069 4.15037 4.68854 4.58228 2.69727C5.00783 4.68854 5.35717 5.04069 7.33252 5.46968Z" fill="url(#paint2_linear_717_461)"/>
<defs>
<linearGradient id="paint0_linear_717_461" x1="-42.2969" y1="71.4527" x2="79.4976" y2="-48.6804" gradientUnits="userSpaceOnUse">
<stop stop-color="#4D4D4D"/>
<stop offset="0.0021811" stop-color="#4C4C4C"/>
<stop offset="0.0824319" stop-color="#2B2B2B"/>
<stop offset="0.1593" stop-color="#131313"/>
<stop offset="0.2306" stop-color="#050505"/>
<stop offset="0.291"/>
<stop offset="0.3377" stop-color="#090909"/>
<stop offset="0.4134" stop-color="#212121"/>
<stop offset="0.5082" stop-color="#484848"/>
<stop offset="0.5757" stop-color="#686868"/>
<stop offset="0.7748" stop-color="#272727"/>
<stop offset="0.7985" stop-color="#1F1F1F"/>
<stop offset="1" stop-color="#6D6D6D"/>
</linearGradient>
<linearGradient id="paint1_linear_717_461" x1="-50.4215" y1="63.2174" x2="71.3738" y2="-56.9165" gradientUnits="userSpaceOnUse">
<stop stop-color="#4D4D4D"/>
<stop offset="0.0021811" stop-color="#4C4C4C"/>
<stop offset="0.0824319" stop-color="#2B2B2B"/>
<stop offset="0.1593" stop-color="#131313"/>
<stop offset="0.2306" stop-color="#050505"/>
<stop offset="0.291"/>
<stop offset="0.3377" stop-color="#090909"/>
<stop offset="0.4134" stop-color="#212121"/>
<stop offset="0.5082" stop-color="#484848"/>
<stop offset="0.5757" stop-color="#686868"/>
<stop offset="0.7748" stop-color="#272727"/>
<stop offset="0.7985" stop-color="#1F1F1F"/>
<stop offset="1" stop-color="#6D6D6D"/>
</linearGradient>
<linearGradient id="paint2_linear_717_461" x1="-72.4263" y1="83.0997" x2="84.5953" y2="-72.6664" gradientUnits="userSpaceOnUse">
<stop stop-color="#4D4D4D"/>
<stop offset="0.0021811" stop-color="#4C4C4C"/>
<stop offset="0.0824319" stop-color="#2B2B2B"/>
<stop offset="0.1593" stop-color="#131313"/>
<stop offset="0.2306" stop-color="#050505"/>
<stop offset="0.291"/>
<stop offset="0.3377" stop-color="#090909"/>
<stop offset="0.4134" stop-color="#212121"/>
<stop offset="0.5082" stop-color="#484848"/>
<stop offset="0.5757" stop-color="#686868"/>
<stop offset="0.7748" stop-color="#272727"/>
<stop offset="0.7985" stop-color="#1F1F1F"/>
<stop offset="1" stop-color="#6D6D6D"/>
</linearGradient>
</defs>
</svg>
